<?xml version="1.0" encoding="UTF-8" standalone="no"?>
<svg
   xmlns:dc="http://purl.org/dc/elements/1.1/"
   xmlns:cc="http://creativecommons.org/ns#"
   xmlns:rdf="http://www.w3.org/1999/02/22-rdf-syntax-ns#"
   xmlns:svg="http://www.w3.org/2000/svg"
   xmlns="http://www.w3.org/2000/svg"
   xmlns:sodipodi="http://sodipodi.sourceforge.net/DTD/sodipodi-0.dtd"
   xmlns:inkscape="http://www.inkscape.org/namespaces/inkscape"
   height="38.184967"
   viewBox="0 0 262.58731 38.184967"
   width="262.58731"
   version="1.1"
   id="svg8"
   sodipodi:docname="logo.svg"
   inkscape:version="0.92.3 (2405546, 2018-03-11)">
  <metadata
     id="metadata14">
    <rdf:RDF>
      <cc:Work
         rdf:about="">
        <dc:format>image/svg+xml</dc:format>
        <dc:type
           rdf:resource="http://purl.org/dc/dcmitype/StillImage" />
        <dc:title></dc:title>
      </cc:Work>
    </rdf:RDF>
  </metadata>
  <defs
     id="defs12" />
  <sodipodi:namedview
     pagecolor="#ffffff"
     bordercolor="#666666"
     borderopacity="1"
     objecttolerance="10"
     gridtolerance="10"
     guidetolerance="10"
     inkscape:pageopacity="0"
     inkscape:pageshadow="2"
     inkscape:window-width="1680"
     inkscape:window-height="991"
     id="namedview10"
     showgrid="false"
     inkscape:zoom="3.5190896"
     inkscape:cx="51.621255"
     inkscape:cy="13.202369"
     inkscape:window-x="3520"
     inkscape:window-y="0"
     inkscape:window-maximized="1"
     inkscape:current-layer="svg8"
     fit-margin-top="0"
     fit-margin-left="0"
     fit-margin-right="0"
     fit-margin-bottom="0" />
  <g
     transform="matrix(0.0659453,0,0,0.0659453,19.16783,19.3475)"
     style="fill:#ffffff;stroke:#ffffff;stroke-opacity:1"
     id="g44" />
  <g
     aria-label="ManualSalut"
     style="font-style:normal;font-variant:normal;font-weight:normal;font-stretch:normal;font-size:40px;line-height:1.25;font-family:Carlito;-inkscape-font-specification:Carlito;letter-spacing:0px;word-spacing:0px;fill:#ffffff;fill-opacity:1;stroke:none"
     id="text47">
    <path
       id="path32"
       style="font-style:normal;font-variant:normal;font-weight:bold;font-stretch:normal;font-family:Carlito;-inkscape-font-specification:'Carlito Bold';fill:#ffffff"
       d="m 251.8256,33.272171 q -2.51954,0 -3.86719,-1.445312 -1.34766,-1.464844 -1.34766,-4.003907 V 17.237015 h -1.75781 q -0.39063,0 -0.66406,-0.253906 -0.27344,-0.273438 -0.27344,-0.78125 v -1.972657 l 2.94922,-0.566406 1.03515,-5.1171875 q 0.17579,-0.8007812 1.09375,-0.8007812 h 2.57813 V 13.72139 h 4.78516 v 3.515625 h -4.78516 v 10.253906 q 0,0.859375 0.37109,1.347656 0.3711,0.46875 1.05469,0.46875 0.37109,0 0.60547,-0.07813 0.25391,-0.09766 0.42969,-0.214843 0.17578,-0.117188 0.3125,-0.195313 0.15625,-0.09766 0.33203,-0.09766 0.21484,0 0.35156,0.117187 0.13672,0.09766 0.29297,0.332032 l 1.50391,2.402343 q -1.01563,0.839844 -2.32422,1.269532 -1.28907,0.429687 -2.67578,0.429687 z m -22.71485,-19.6875 V 25.90889 q 0,1.679687 0.76172,2.597656 0.76172,0.917969 2.28516,0.917969 1.11328,0 2.10937,-0.488281 0.9961,-0.507813 1.875,-1.367188 V 13.584671 h 4.96094 v 19.394531 h -3.04688 q -0.46875,0 -0.80078,-0.214843 -0.3125,-0.234375 -0.41015,-0.683594 l -0.35157,-1.40625 q -1.15234,1.152344 -2.55859,1.875 -1.38672,0.722656 -3.30078,0.722656 -1.58203,0 -2.79297,-0.546875 -1.21094,-0.546875 -2.03125,-1.523437 -0.82031,-0.976563 -1.25,-2.324219 -0.41016,-1.347656 -0.41016,-2.96875 V 13.584671 Z m -9.49219,-8.671875 v 28.066406 h -4.96093 V 4.912796 Z m -11.75781,28.066406 q -0.70312,0 -1.07422,-0.195312 -0.37109,-0.214844 -0.58593,-0.839844 l -0.42969,-1.289062 q -0.74219,0.644531 -1.42578,1.132812 -0.6836,0.488281 -1.42578,0.820313 -0.72266,0.332031 -1.5625,0.488281 -0.82032,0.175781 -1.83594,0.175781 -1.25,0 -2.28516,-0.332031 -1.03515,-0.351563 -1.79687,-1.015625 -0.74219,-0.664063 -1.15235,-1.640625 -0.41015,-0.996094 -0.41015,-2.285156 0,-1.074219 0.54687,-2.148438 0.54688,-1.074219 1.85547,-1.933594 1.32813,-0.878906 3.51563,-1.445312 2.20703,-0.585938 5.48828,-0.664063 v -1.035156 q 0,-1.875 -0.78125,-2.753906 -0.78125,-0.878906 -2.2461,-0.878906 -1.09375,0 -1.8164,0.253906 -0.70313,0.253906 -1.25,0.566406 -0.54688,0.292969 -1.01563,0.546875 -0.46875,0.253906 -1.05469,0.253906 -0.50781,0 -0.8789,-0.253906 -0.35156,-0.273437 -0.56641,-0.644531 l -0.89844,-1.5625 q 1.67969,-1.5625 3.71094,-2.324219 2.03125,-0.761719 4.39453,-0.761719 1.69922,0 3.04688,0.566407 1.34765,0.546875 2.28515,1.5625 0.9375,0.996093 1.42579,2.382812 0.48828,1.386719 0.48828,3.046875 v 12.207031 z m -6.79687,-3.085937 q 1.32812,0 2.28515,-0.46875 0.97657,-0.488281 1.9336,-1.484375 v -3.125 q -1.9336,0.07813 -3.22266,0.332031 -1.26953,0.234375 -2.03125,0.625 -0.76172,0.371094 -1.09375,0.878906 -0.3125,0.507813 -0.3125,1.09375 0,1.171875 0.64453,1.660157 0.66406,0.488281 1.79688,0.488281 z M 189.5795,11.924515 q -0.19531,0.390625 -0.46875,0.566406 -0.2539,0.15625 -0.64453,0.15625 -0.37109,0 -0.80078,-0.273437 -0.42969,-0.273438 -1.01563,-0.585938 -0.5664,-0.332031 -1.32812,-0.605469 -0.76172,-0.273437 -1.75781,-0.273437 -1.75782,0 -2.65625,0.859375 -0.87891,0.859375 -0.87891,2.246094 0,0.878906 0.46875,1.464843 0.48828,0.566407 1.26953,0.996094 0.80078,0.410156 1.79688,0.742188 1.01562,0.332031 2.07031,0.722656 1.05469,0.371094 2.05078,0.898437 1.01563,0.507813 1.79688,1.289063 0.80078,0.78125 1.26953,1.914062 0.48828,1.132813 0.48828,2.753907 0,1.757812 -0.58594,3.300781 -0.56641,1.542969 -1.67969,2.695312 -1.11328,1.132813 -2.73437,1.796875 -1.60156,0.664063 -3.67188,0.664063 -1.17187,0 -2.34375,-0.253906 -1.15234,-0.234375 -2.22656,-0.683594 -1.07422,-0.449219 -2.03125,-1.074219 -0.95703,-0.625 -1.67969,-1.40625 l 1.52344,-2.441406 q 0.17578,-0.292969 0.46875,-0.46875 0.3125,-0.175781 0.66406,-0.175781 0.46875,0 0.95703,0.371093 0.50782,0.351563 1.17188,0.800782 0.66406,0.429687 1.54297,0.800781 0.8789,0.351562 2.08984,0.351562 1.75781,0 2.73438,-0.898437 0.97656,-0.898438 0.97656,-2.65625 0,-0.996094 -0.48828,-1.621094 -0.46875,-0.625 -1.25,-1.035156 -0.78125,-0.429688 -1.79688,-0.722656 -0.99609,-0.3125 -2.05078,-0.664063 -1.03515,-0.351562 -2.05078,-0.839844 -0.99609,-0.507812 -1.77734,-1.328125 -0.78125,-0.820312 -1.26953,-2.03125 -0.46875,-1.210937 -0.46875,-3.007812 0,-1.425781 0.54687,-2.773438 0.54688,-1.367187 1.60156,-2.4218747 1.05469,-1.0546875 2.57813,-1.6796875 1.54297,-0.6445313 3.51562,-0.6445313 2.22657,0 4.1211,0.7226563 1.91406,0.7226562 3.26172,2.03125 z M 170.63419,5.2057648 V 32.979202 h -3.4375 V 5.2057648 Z M 160.36075,32.979202 q -0.50781,0 -0.78125,-0.15625 -0.27344,-0.15625 -0.37109,-0.644531 l -0.42969,-1.777344 q -0.74219,0.683594 -1.46484,1.230469 -0.70313,0.527344 -1.48438,0.898438 -0.78125,0.371093 -1.67969,0.546875 -0.89843,0.195312 -1.97265,0.195312 -1.11328,0 -2.08985,-0.292969 -0.95703,-0.3125 -1.69921,-0.9375 -0.72266,-0.644531 -1.15235,-1.582031 -0.41015,-0.957031 -0.41015,-2.246094 0,-1.132812 0.60546,-2.167968 0.625,-1.054688 2.01172,-1.875 1.38672,-0.820313 3.61328,-1.328125 2.22657,-0.527344 5.46875,-0.605469 v -1.464844 q 0,-2.226562 -0.95703,-3.339844 -0.9375,-1.132812 -2.7539,-1.132812 -1.21094,0 -2.05078,0.3125 -0.82032,0.3125 -1.42579,0.683594 -0.60546,0.371093 -1.05468,0.683593 -0.42969,0.3125 -0.87891,0.3125 -0.35156,0 -0.60547,-0.175781 -0.2539,-0.175781 -0.41015,-0.449219 l -0.625,-1.09375 q 1.58203,-1.523437 3.39843,-2.265625 1.83594,-0.761718 4.0625,-0.761718 1.60157,0 2.85157,0.527343 1.25,0.507813 2.08984,1.464844 0.83984,0.957031 1.26953,2.285156 0.44922,1.328125 0.44922,2.949219 v 12.207031 z m -7.14844,-2.109375 q 0.85938,0 1.58204,-0.175781 0.72265,-0.175781 1.36718,-0.488281 0.64453,-0.332031 1.21094,-0.800781 0.58594,-0.488282 1.15234,-1.074219 v -3.945313 q -2.28515,0.09766 -3.88671,0.390625 -1.60157,0.273438 -2.61719,0.742188 -0.9961,0.46875 -1.44531,1.113281 -0.44922,0.625 -0.44922,1.40625 0,0.742188 0.23437,1.289063 0.25391,0.527343 0.66406,0.878906 0.41016,0.332031 0.97657,0.507812 0.5664,0.15625 1.21093,0.15625 z M 130.04825,13.87764 v 12.167969 q 0,2.148437 0.95703,3.339843 0.97657,1.171875 2.94922,1.171875 1.46485,0 2.71485,-0.683593 1.26953,-0.703125 2.34375,-1.914063 V 13.87764 h 3.4375 v 19.101562 h -2.07032 q -0.35156,0 -0.58593,-0.15625 -0.23438,-0.175781 -0.27344,-0.546875 l -0.3125,-2.03125 q -1.23047,1.367188 -2.75391,2.207032 -1.5039,0.820312 -3.49609,0.820312 -1.5625,0 -2.75391,-0.507812 -1.17187,-0.527344 -1.97265,-1.464844 -0.80079,-0.957031 -1.21094,-2.285156 -0.41016,-1.347657 -0.41016,-2.96875 V 13.87764 Z M 105.8881,32.979202 V 13.87764 h 2.05078 q 0.37109,0 0.60547,0.175781 0.23437,0.15625 0.27343,0.527344 l 0.29297,2.03125 q 1.23047,-1.367188 2.75391,-2.1875 1.52344,-0.839844 3.51562,-0.839844 1.5625,0 2.73438,0.527344 1.1914,0.507812 1.99219,1.464844 0.80078,0.9375 1.21093,2.285156 0.41016,1.328125 0.41016,2.949219 v 12.167968 h -3.4375 V 20.811234 q 0,-2.128907 -0.97656,-3.320313 -0.95703,-1.191406 -2.92969,-1.191406 -1.46484,0 -2.73438,0.703125 -1.26953,0.683594 -2.32421,1.914062 v 14.0625 z m -6.699223,0 q -0.507812,0 -0.78125,-0.15625 -0.273437,-0.15625 -0.371094,-0.644531 l -0.429687,-1.777344 q -0.742188,0.683594 -1.464844,1.230469 -0.703125,0.527344 -1.484375,0.898438 -0.78125,0.371093 -1.679687,0.546875 -0.898438,0.195312 -1.972657,0.195312 -1.113281,0 -2.089843,-0.292969 -0.957032,-0.3125 -1.699219,-0.9375 -0.722656,-0.644531 -1.152344,-1.582031 -0.410156,-0.957031 -0.410156,-2.246094 0,-1.132812 0.605469,-2.167968 0.625,-1.054688 2.011718,-1.875 1.386719,-0.820313 3.613282,-1.328125 2.226562,-0.527344 5.46875,-0.605469 v -1.464844 q 0,-2.226562 -0.957032,-3.339844 -0.9375,-1.132812 -2.753906,-1.132812 -1.210937,0 -2.050781,0.3125 -0.820313,0.3125 -1.425781,0.683594 -0.605469,0.371093 -1.054688,0.683593 -0.429687,0.3125 -0.878906,0.3125 -0.351563,0 -0.605469,-0.175781 -0.253906,-0.175781 -0.410156,-0.449219 l -0.625,-1.09375 q 1.582031,-1.523437 3.398437,-2.265625 1.835938,-0.761718 4.0625,-0.761718 1.601563,0 2.851563,0.527343 1.25,0.507813 2.089844,1.464844 0.839843,0.957031 1.269535,2.285156 0.44921,1.328125 0.44921,2.949219 V 32.979202 Z M 92.04044,30.869827 q 0.859375,0 1.582031,-0.175781 0.722656,-0.175781 1.367187,-0.488281 0.644532,-0.332031 1.210938,-0.800781 0.585937,-0.488282 1.152344,-1.074219 v -3.945313 q -2.285157,0.09766 -3.886719,0.390625 -1.601563,0.273438 -2.617188,0.742188 -0.996093,0.46875 -1.445312,1.113281 -0.449219,0.625 -0.449219,1.40625 0,0.742188 0.234375,1.289063 0.253906,0.527343 0.664063,0.878906 0.410156,0.332031 0.976562,0.507812 0.566406,0.15625 1.210938,0.15625 z m -25.9375,-7.246093 q 0.253906,0.449218 0.449218,0.917968 0.214844,0.46875 0.410157,0.957032 0.195312,-0.507813 0.390625,-0.976563 0.214843,-0.46875 0.449218,-0.898437 l 9.0625,-15.7226567 Q 77.099033,7.490921 77.372471,7.412796 77.645908,7.31514 78.114658,7.31514 h 2.617188 V 32.979202 H 77.587315 V 14.248734 q 0,-0.390625 0.01953,-0.859375 0.03906,-0.488282 0.07813,-0.976563 l -9.160156,16.09375 Q 68.0756,29.307327 67.235756,29.307327 H 66.72794 q -0.839844,0 -1.289063,-0.800781 l -9.375,-16.074219 q 0.117188,0.976563 0.117188,1.816407 v 18.730468 h -3.125 V 7.3151398 h 2.617187 q 0.46875,0 0.722656,0.097656 0.273438,0.078125 0.527344,0.5078125 z M 19.092484,38.084729 c 8.322296,0 12.948776,0 15.970515,-3.021732 3.021732,-3.021739 3.021732,-7.648217 3.021732,-15.970513 0,-8.322297 0,-12.9487755 -3.021732,-15.9705145 C 32.04126,0.10023719 27.41478,0.10023719 19.092484,0.10023719 c -8.322298,0 -12.9487762,0 -15.9705152,3.02173231 -3.02173166,3.021739 -3.02173166,7.6482175 -3.02173166,15.9705145 0,8.322296 0,12.948774 3.02173166,15.970513 3.021739,3.021732 7.6482172,3.021732 15.9705152,3.021732 z M 17.947842,0.08554787 C 14.967687,0.12108316 11.971556,0.09336899 9.0120177,0.48951164 6.8910395,0.82826803 4.6978379,1.5025851 3.1596084,3.081551 1.3638164,4.8302245 0.65322871,7.359875 0.38951939,9.7837571 0.02415934,13.254814 0.12929659,16.753118 0.10279186,20.237632 c 0.0485878,3.248201 -0.06545599,6.530885 0.52845068,9.739914 0.41773846,2.233325 1.45278486,4.466096 3.33851446,5.824466 2.2148751,1.628256 5.0478436,1.9883 7.71627,2.15759 4.368454,0.180547 8.743834,0.137915 13.114459,0.06394 2.610344,-0.102012 5.311395,-0.206922 7.747169,-1.24941 2.030391,-0.874892 3.66303,-2.601364 4.408655,-4.684791 1.048688,-2.84815 1.029218,-5.936641 1.104624,-8.929883 0.01998,-3.986529 0.08804,-7.978448 -0.133974,-11.960679 C 37.742077,8.5946295 37.311718,5.8260401 35.620667,3.7343059 34.180385,1.9069491 31.921687,0.95578711 29.679598,0.57269636 26.777496,0.07326556 23.817208,0.16031336 20.884087,0.09577269 19.905368,0.08687601 18.9266,0.08307822 17.947842,0.08554787 Z" />
  </g>
</svg>
