<?xml version="1.0" encoding="UTF-8" standalone="no"?>
<svg
   xmlns:dc="http://purl.org/dc/elements/1.1/"
   xmlns:cc="http://creativecommons.org/ns#"
   xmlns:rdf="http://www.w3.org/1999/02/22-rdf-syntax-ns#"
   xmlns:svg="http://www.w3.org/2000/svg"
   xmlns="http://www.w3.org/2000/svg"
   xmlns:sodipodi="http://sodipodi.sourceforge.net/DTD/sodipodi-0.dtd"
   xmlns:inkscape="http://www.inkscape.org/namespaces/inkscape"
   height="38.184967"
   viewBox="0 0 315.98575 38.184967"
   width="315.98575"
   version="1.1"
   id="svg8"
   sodipodi:docname="logo.svg"
   inkscape:version="0.92.4 (5da689c313, 2019-01-14)">
  <metadata
     id="metadata14">
    <rdf:RDF>
      <cc:Work
         rdf:about="">
        <dc:format>image/svg+xml</dc:format>
        <dc:type
           rdf:resource="http://purl.org/dc/dcmitype/StillImage" />
        <dc:title></dc:title>
      </cc:Work>
    </rdf:RDF>
  </metadata>
  <defs
     id="defs12" />
  <sodipodi:namedview
     pagecolor="#ffffff"
     bordercolor="#666666"
     borderopacity="1"
     objecttolerance="10"
     gridtolerance="10"
     guidetolerance="10"
     inkscape:pageopacity="0"
     inkscape:pageshadow="2"
     inkscape:window-width="1920"
     inkscape:window-height="1021"
     id="namedview10"
     showgrid="false"
     inkscape:zoom="3.5190896"
     inkscape:cx="153.36551"
     inkscape:cy="13.202368"
     inkscape:window-x="1680"
     inkscape:window-y="0"
     inkscape:window-maximized="1"
     inkscape:current-layer="svg8"
     fit-margin-top="0"
     fit-margin-left="0"
     fit-margin-right="0"
     fit-margin-bottom="0" />
  <g
     transform="matrix(0.0659453,0,0,0.0659453,19.16783,19.3475)"
     style="fill:#ffffff;stroke:#ffffff;stroke-opacity:1"
     id="g44">
    <path
       style="fill:#ffffff;stroke:#ffffff;stroke-width:0.91084939;stroke-opacity:1"
       d="m -18.5,-292.08984 c -45.19132,0.53886 -90.62489,0.1186 -135.50358,6.12574 -32.16269,5.13693 -65.42058,15.36233 -88.74642,39.3059 -27.23154,26.51703 -38.00695,64.87686 -42.00586,101.63281 -5.54035,52.63539 -3.94604,105.68396 -4.34796,158.52343 0.73679,49.25598 -0.99258,99.03488 8.01347,147.69686 6.33462,33.86632 22.03015,67.72425 50.62551,88.32268 33.58655,24.69102 76.54592,30.15075 117.01016,32.71788 66.2436,2.73783 132.59223,2.09136 198.86874,0.96962 39.58348,-1.54692 80.54243,-3.13778 117.47872,-18.94615 30.78901,-13.26694 55.54649,-39.44731 66.85321,-71.04057 15.90239,-43.18958 15.60714,-90.02371 16.7506,-135.41348 0.30293,-60.45206 1.33502,-120.98585 -2.03158,-181.37273 -2.80359,-39.48957 -9.32958,-81.47269 -34.97282,-113.19192 -21.84056,-27.71019 -56.09165,-42.13369 -90.09087,-47.94291 -44.00771,-7.57341 -88.89776,-6.25341 -133.37586,-7.23211 -14.84138,-0.13491 -29.68349,-0.1925 -44.52546,-0.15505 z"
       id="path38"
       inkscape:connector-curvature="0" />
    <path
       style="fill:#ffffff;stroke:#ffffff;stroke-width:3.03999996;stroke-opacity:1"
       inkscape:connector-curvature="0"
       id="path6-6"
       d="m -1.1425603,284.1329 c 126.2000003,0 196.3563203,0 242.1782203,-45.8218 45.8218,-45.8219 45.8218,-115.97819 45.8218,-242.178189 0,-126.200001 0,-196.356301 -45.8218,-242.178201 -45.8219,-45.8218 -115.97822,-45.8218 -242.1782203,-45.8218 -126.2000097,0 -196.3563097,0 -242.1782097,45.8218 -45.82179,45.8219 -45.82179,115.9782 -45.82179,242.178201 0,126.199999 0,196.356289 45.82179,242.178189 45.8219,45.8218 115.9782,45.8218 242.1782097,45.8218 z" />
  </g>
  <g
     aria-label="LeGuidedeSante"
     style="font-style:normal;font-variant:normal;font-weight:normal;font-stretch:normal;font-size:40px;line-height:1.25;font-family:Carlito;-inkscape-font-specification:Carlito;letter-spacing:0px;word-spacing:0px;fill:#ffffff;fill-opacity:1;stroke:none"
     id="text47">
    <path
       d="m 56.044346,29.990921 h 9.902344 v 2.988281 H 52.489658 V 7.3151398 h 3.554688 z"
       style=""
       id="path21" />
    <path
       d="m 77.04044,13.584671 q 1.71875,0 3.183593,0.566406 1.464844,0.566407 2.539063,1.660157 1.074219,1.09375 1.679687,2.675781 0.605469,1.582031 0.605469,3.632812 0,0.800782 -0.175781,1.074219 -0.175781,0.253906 -0.644531,0.253906 H 71.454502 q 0.03906,1.796875 0.488281,3.144532 0.449219,1.328125 1.230469,2.207031 0.800781,0.878906 1.894531,1.328125 1.09375,0.429687 2.441407,0.429687 1.25,0 2.167968,-0.273437 0.917969,-0.292969 1.5625,-0.644531 0.664063,-0.351563 1.113282,-0.625 0.449218,-0.292969 0.78125,-0.292969 0.214843,0 0.371093,0.09766 0.15625,0.07813 0.273438,0.234375 l 0.976562,1.25 q -0.644531,0.761719 -1.523437,1.328125 -0.859375,0.546875 -1.855469,0.917969 -0.996094,0.351562 -2.070312,0.527344 -1.054688,0.175781 -2.089844,0.175781 -1.992188,0 -3.671875,-0.664063 -1.679688,-0.664062 -2.910156,-1.953125 -1.210938,-1.308593 -1.894532,-3.203125 -0.683593,-1.914062 -0.683593,-4.394531 0,-1.992187 0.605468,-3.710937 0.625,-1.738282 1.777344,-3.007813 1.171875,-1.289062 2.832031,-2.011719 1.679688,-0.722656 3.769532,-0.722656 z m 0.05859,2.5 q -2.402343,0 -3.808593,1.40625 -1.386719,1.40625 -1.738282,3.847656 h 10.410157 q 0,-1.152343 -0.332032,-2.109375 -0.332031,-0.976562 -0.957031,-1.660156 -0.625,-0.703125 -1.542969,-1.09375 -0.898437,-0.390625 -2.03125,-0.390625 z"
       style=""
       id="path23" />
    <path
       d="m 109.65763,30.498734 q -1.875,1.386718 -4.00391,2.070312 -2.10937,0.683594 -4.58984,0.683594 -2.988284,0 -5.410159,-0.957031 -2.402344,-0.957032 -4.101563,-2.675782 -1.699218,-1.738281 -2.617187,-4.140625 -0.917969,-2.421875 -0.917969,-5.332031 0,-2.929687 0.878906,-5.332031 0.898438,-2.421875 2.539063,-4.140625 1.660156,-1.7382815 4.003906,-2.6953127 2.34375,-0.9570313 5.253903,-0.9570313 1.48438,0 2.73438,0.234375 1.26953,0.2148438 2.34375,0.6445313 1.07422,0.4101562 1.97265,1.015625 0.91797,0.6054687 1.69922,1.3476567 l -0.99609,1.601562 q -0.23438,0.390625 -0.625,0.488281 -0.39063,0.09766 -0.83984,-0.175781 -0.44922,-0.253906 -0.9961,-0.605469 -0.52734,-0.371093 -1.26953,-0.683593 -0.74219,-0.332032 -1.75781,-0.566407 -1.01563,-0.234375 -2.40235,-0.234375 -2.031245,0 -3.691402,0.703125 -1.640625,0.703125 -2.8125,2.011719 -1.152343,1.308594 -1.777343,3.183594 -0.625,1.855469 -0.625,4.160156 0,2.402344 0.644531,4.316406 0.664062,1.894532 1.875,3.222657 1.230469,1.308593 2.949219,2.011718 1.71875,0.683594 3.847655,0.683594 1.64063,0 2.92969,-0.371094 1.28906,-0.390625 2.53906,-1.074218 v -5.625 h -3.69141 q -0.35156,0 -0.5664,-0.195313 -0.21485,-0.195312 -0.21485,-0.488281 v -2.011719 h 7.69532 v 9.882813 z"
       style=""
       id="path25" />
    <path
       d="m 117.62638,13.87764 v 12.167969 q 0,2.148437 0.95703,3.339843 0.97656,1.171875 2.94922,1.171875 1.46484,0 2.71484,-0.683593 1.26953,-0.703125 2.34375,-1.914063 V 13.87764 h 3.4375 v 19.101562 h -2.07031 q -0.35156,0 -0.58594,-0.15625 -0.23437,-0.175781 -0.27344,-0.546875 l -0.3125,-2.03125 q -1.23047,1.367188 -2.7539,2.207032 -1.50391,0.820312 -3.4961,0.820312 -1.5625,0 -2.7539,-0.507812 -1.17188,-0.527344 -1.97266,-1.464844 -0.80078,-0.957031 -1.21094,-2.285156 -0.41015,-1.347657 -0.41015,-2.96875 V 13.87764 Z"
       style=""
       id="path27" />
    <path
       d="m 134.91153,32.979202 z m 4.16016,-19.101562 v 19.101562 h -3.4375 V 13.87764 Z m 0.66406,-5.9765627 q 0,0.4882812 -0.19531,0.9375 -0.19531,0.4296875 -0.54688,0.7617187 -0.33203,0.3125 -0.78125,0.507813 -0.42968,0.195312 -0.91796,0.195312 -0.48829,0 -0.91797,-0.195312 -0.42969,-0.195313 -0.76172,-0.507813 -0.3125,-0.3320312 -0.50781,-0.7617187 -0.19532,-0.4492188 -0.19532,-0.9375 0,-0.5078125 0.19532,-0.9375 0.19531,-0.4492188 0.50781,-0.78125 0.33203,-0.3320313 0.76172,-0.5273438 0.42968,-0.1953125 0.91797,-0.1953125 0.48828,0 0.91796,0.1953125 0.44922,0.1953125 0.78125,0.5273438 0.35157,0.3320312 0.54688,0.78125 0.19531,0.4296875 0.19531,0.9375 z"
       style=""
       id="path29" />
    <path
       d="m 158.13419,32.979202 q -0.37109,0 -0.60547,-0.15625 -0.23437,-0.175781 -0.27344,-0.546875 l -0.35156,-2.285156 q -1.21094,1.464844 -2.75391,2.363281 -1.54296,0.898438 -3.57421,0.898438 -1.6211,0 -2.94922,-0.625 -1.3086,-0.644531 -2.2461,-1.875 -0.9375,-1.230469 -1.44531,-3.046875 -0.50781,-1.835938 -0.50781,-4.21875 0,-2.109375 0.54687,-3.925781 0.56641,-1.835938 1.6211,-3.164063 1.05468,-1.328125 2.55859,-2.089844 1.52344,-0.761718 3.4375,-0.761718 1.73828,0 2.96875,0.585937 1.23047,0.566406 2.1875,1.640625 V 5.2057648 h 3.4375 V 32.979202 Z m -6.44531,-2.480468 q 1.62109,0 2.8125,-0.742188 1.21093,-0.761719 2.24609,-2.109375 V 18.40889 q -0.91797,-1.230469 -1.99219,-1.71875 -1.07422,-0.507813 -2.38281,-0.507813 -2.59766,0 -4.00391,1.894532 -1.40625,1.894531 -1.40625,5.410156 0,1.855469 0.3125,3.183594 0.33204,1.328125 0.9375,2.1875 0.60547,0.839843 1.48438,1.25 0.87891,0.390625 1.99219,0.390625 z"
       style=""
       id="path31" />
    <path
       d="m 173.44669,13.584671 q 1.71875,0 3.18359,0.566406 1.46485,0.566407 2.53907,1.660157 1.07421,1.09375 1.67968,2.675781 0.60547,1.582031 0.60547,3.632812 0,0.800782 -0.17578,1.074219 -0.17578,0.253906 -0.64453,0.253906 h -12.77344 q 0.0391,1.796875 0.48828,3.144532 0.44922,1.328125 1.23047,2.207031 0.80078,0.878906 1.89453,1.328125 1.09375,0.429687 2.44141,0.429687 1.25,0 2.16797,-0.273437 0.91797,-0.292969 1.5625,-0.644531 0.66406,-0.351563 1.11328,-0.625 0.44922,-0.292969 0.78125,-0.292969 0.21484,0 0.37109,0.09766 0.15625,0.07813 0.27344,0.234375 l 0.97656,1.25 q -0.64453,0.761719 -1.52343,1.328125 -0.85938,0.546875 -1.85547,0.917969 -0.9961,0.351562 -2.07032,0.527344 -1.05468,0.175781 -2.08984,0.175781 -1.99219,0 -3.67187,-0.664063 -1.67969,-0.664062 -2.91016,-1.953125 -1.21094,-1.308593 -1.89453,-3.203125 -0.6836,-1.914062 -0.6836,-4.394531 0,-1.992187 0.60547,-3.710937 0.625,-1.738282 1.77735,-3.007813 1.17187,-1.289062 2.83203,-2.011719 1.67969,-0.722656 3.76953,-0.722656 z m 0.0586,2.5 q -2.40234,0 -3.80859,1.40625 -1.38672,1.40625 -1.73828,3.847656 h 10.41015 q 0,-1.152343 -0.33203,-2.109375 -0.33203,-0.976562 -0.95703,-1.660156 -0.625,-0.703125 -1.54297,-1.09375 -0.89843,-0.390625 -2.03125,-0.390625 z"
       style=""
       id="path33" />
    <path
       d="m 199.07169,32.979202 q -0.37109,0 -0.60547,-0.15625 -0.23437,-0.175781 -0.27344,-0.546875 l -0.35156,-2.285156 q -1.21094,1.464844 -2.75391,2.363281 -1.54296,0.898438 -3.57421,0.898438 -1.6211,0 -2.94922,-0.625 -1.3086,-0.644531 -2.2461,-1.875 -0.9375,-1.230469 -1.44531,-3.046875 -0.50781,-1.835938 -0.50781,-4.21875 0,-2.109375 0.54687,-3.925781 0.56641,-1.835938 1.6211,-3.164063 1.05468,-1.328125 2.55859,-2.089844 1.52344,-0.761718 3.4375,-0.761718 1.73828,0 2.96875,0.585937 1.23047,0.566406 2.1875,1.640625 V 5.2057648 h 3.4375 V 32.979202 Z m -6.44531,-2.480468 q 1.62109,0 2.8125,-0.742188 1.21093,-0.761719 2.24609,-2.109375 V 18.40889 q -0.91797,-1.230469 -1.99219,-1.71875 -1.07422,-0.507813 -2.38281,-0.507813 -2.59766,0 -4.00391,1.894532 -1.40625,1.894531 -1.40625,5.410156 0,1.855469 0.3125,3.183594 0.33204,1.328125 0.9375,2.1875 0.60547,0.839843 1.48438,1.25 0.87891,0.390625 1.99219,0.390625 z"
       style=""
       id="path35" />
    <path
       d="m 214.38419,13.584671 q 1.71875,0 3.18359,0.566406 1.46485,0.566407 2.53907,1.660157 1.07421,1.09375 1.67968,2.675781 0.60547,1.582031 0.60547,3.632812 0,0.800782 -0.17578,1.074219 -0.17578,0.253906 -0.64453,0.253906 h -12.77344 q 0.0391,1.796875 0.48828,3.144532 0.44922,1.328125 1.23047,2.207031 0.80078,0.878906 1.89453,1.328125 1.09375,0.429687 2.44141,0.429687 1.25,0 2.16797,-0.273437 0.91797,-0.292969 1.5625,-0.644531 0.66406,-0.351563 1.11328,-0.625 0.44922,-0.292969 0.78125,-0.292969 0.21484,0 0.37109,0.09766 0.15625,0.07813 0.27344,0.234375 l 0.97656,1.25 q -0.64453,0.761719 -1.52343,1.328125 -0.85938,0.546875 -1.85547,0.917969 -0.9961,0.351562 -2.07032,0.527344 -1.05468,0.175781 -2.08984,0.175781 -1.99219,0 -3.67187,-0.664063 -1.67969,-0.664062 -2.91016,-1.953125 -1.21094,-1.308593 -1.89453,-3.203125 -0.6836,-1.914062 -0.6836,-4.394531 0,-1.992187 0.60547,-3.710937 0.625,-1.738282 1.77735,-3.007813 1.17187,-1.289062 2.83203,-2.011719 1.67969,-0.722656 3.76953,-0.722656 z m 0.0586,2.5 q -2.40234,0 -3.80859,1.40625 -1.38672,1.40625 -1.73828,3.847656 h 10.41015 q 0,-1.152343 -0.33203,-2.109375 -0.33203,-0.976562 -0.95703,-1.660156 -0.625,-0.703125 -1.54297,-1.09375 -0.89843,-0.390625 -2.03125,-0.390625 z"
       style=""
       id="path37" />
    <path
       d="m 239.892,11.924515 q -0.19531,0.390625 -0.46875,0.566406 -0.2539,0.15625 -0.64453,0.15625 -0.37109,0 -0.80078,-0.273437 -0.42969,-0.273438 -1.01563,-0.585938 -0.5664,-0.332031 -1.32812,-0.605469 -0.76172,-0.273437 -1.75781,-0.273437 -1.75782,0 -2.65625,0.859375 -0.87891,0.859375 -0.87891,2.246094 0,0.878906 0.46875,1.464843 0.48828,0.566407 1.26953,0.996094 0.80078,0.410156 1.79688,0.742188 1.01562,0.332031 2.07031,0.722656 1.05469,0.371094 2.05078,0.898437 1.01563,0.507813 1.79688,1.289063 0.80078,0.78125 1.26953,1.914062 0.48828,1.132813 0.48828,2.753907 0,1.757812 -0.58594,3.300781 -0.56641,1.542969 -1.67969,2.695312 -1.11328,1.132813 -2.73437,1.796875 -1.60156,0.664063 -3.67188,0.664063 -1.17187,0 -2.34375,-0.253906 -1.15234,-0.234375 -2.22656,-0.683594 -1.07422,-0.449219 -2.03125,-1.074219 -0.95703,-0.625 -1.67969,-1.40625 l 1.52344,-2.441406 q 0.17578,-0.292969 0.46875,-0.46875 0.3125,-0.175781 0.66406,-0.175781 0.46875,0 0.95703,0.371093 0.50782,0.351563 1.17188,0.800782 0.66406,0.429687 1.54297,0.800781 0.8789,0.351562 2.08984,0.351562 1.75781,0 2.73438,-0.898437 0.97656,-0.898438 0.97656,-2.65625 0,-0.996094 -0.48828,-1.621094 -0.46875,-0.625 -1.25,-1.035156 -0.78125,-0.429688 -1.79688,-0.722656 -0.99609,-0.3125 -2.05078,-0.664063 -1.03515,-0.351562 -2.05078,-0.839844 -0.99609,-0.507812 -1.77734,-1.328125 -0.78125,-0.820312 -1.26953,-2.03125 -0.46875,-1.210937 -0.46875,-3.007812 0,-1.425781 0.54687,-2.773438 0.54688,-1.367187 1.60156,-2.4218747 1.05469,-1.0546875 2.57813,-1.6796875 1.54297,-0.6445313 3.51562,-0.6445313 2.22657,0 4.1211,0.7226563 1.91406,0.7226562 3.26172,2.03125 z"
       style="font-style:normal;font-variant:normal;font-weight:bold;font-stretch:normal;font-family:Carlito;-inkscape-font-specification:'Carlito Bold';fill:#ffffff"
       id="path39" />
    <path
       d="m 258.17325,32.979202 q -0.70312,0 -1.07422,-0.195312 -0.37109,-0.214844 -0.58593,-0.839844 l -0.42969,-1.289062 q -0.74219,0.644531 -1.42578,1.132812 -0.6836,0.488281 -1.42578,0.820313 -0.72266,0.332031 -1.5625,0.488281 -0.82032,0.175781 -1.83594,0.175781 -1.25,0 -2.28516,-0.332031 -1.03515,-0.351563 -1.79687,-1.015625 -0.74219,-0.664063 -1.15235,-1.640625 -0.41015,-0.996094 -0.41015,-2.285156 0,-1.074219 0.54687,-2.148438 0.54688,-1.074219 1.85547,-1.933594 1.32813,-0.878906 3.51563,-1.445312 2.20703,-0.585938 5.48828,-0.664063 v -1.035156 q 0,-1.875 -0.78125,-2.753906 -0.78125,-0.878906 -2.2461,-0.878906 -1.09375,0 -1.8164,0.253906 -0.70313,0.253906 -1.25,0.566406 -0.54688,0.292969 -1.01563,0.546875 -0.46875,0.253906 -1.05469,0.253906 -0.50781,0 -0.8789,-0.253906 -0.35156,-0.273437 -0.56641,-0.644531 l -0.89844,-1.5625 q 1.67969,-1.5625 3.71094,-2.324219 2.03125,-0.761719 4.39453,-0.761719 1.69922,0 3.04688,0.566407 1.34765,0.546875 2.28515,1.5625 0.9375,0.996093 1.42579,2.382812 0.48828,1.386719 0.48828,3.046875 v 12.207031 z m -6.79687,-3.085937 q 1.32812,0 2.28515,-0.46875 0.97657,-0.488281 1.9336,-1.484375 v -3.125 q -1.9336,0.07813 -3.22266,0.332031 -1.26953,0.234375 -2.03125,0.625 -0.76172,0.371094 -1.09375,0.878906 -0.3125,0.507813 -0.3125,1.09375 0,1.171875 0.64453,1.660157 0.66406,0.488281 1.79688,0.488281 z"
       style="font-style:normal;font-variant:normal;font-weight:bold;font-stretch:normal;font-family:Carlito;-inkscape-font-specification:'Carlito Bold';fill:#ffffff"
       id="path41" />
    <path
       d="M 264.9506,32.979202 V 13.584671 h 3.04687 q 0.46875,0 0.78125,0.214844 0.33203,0.214844 0.42969,0.664062 l 0.33203,1.425782 q 0.58594,-0.585938 1.21094,-1.054688 0.625,-0.488281 1.34765,-0.820312 0.72266,-0.351563 1.52344,-0.546875 0.82031,-0.195313 1.79688,-0.195313 1.58203,0 2.79296,0.546875 1.21094,0.546875 2.03125,1.523438 0.82032,0.976562 1.23047,2.34375 0.42969,1.347656 0.42969,2.949218 v 12.34375 h -4.96094 v -12.34375 q 0,-1.660156 -0.76172,-2.578125 -0.76171,-0.917968 -2.28515,-0.917968 -1.13281,0 -2.12891,0.488281 -0.97656,0.488281 -1.85547,1.367187 v 13.984375 z"
       style="font-style:normal;font-variant:normal;font-weight:bold;font-stretch:normal;font-family:Carlito;-inkscape-font-specification:'Carlito Bold';fill:#ffffff"
       id="path43" />
    <path
       d="m 291.90372,33.272171 q -2.51953,0 -3.86719,-1.445312 -1.34765,-1.464844 -1.34765,-4.003907 V 17.237015 h -1.75782 q -0.39062,0 -0.66406,-0.253906 -0.27344,-0.273438 -0.27344,-0.78125 v -1.972657 l 2.94922,-0.566406 1.03516,-5.1171875 q 0.17578,-0.8007812 1.09375,-0.8007812 h 2.57812 V 13.72139 h 4.78516 v 3.515625 h -4.78516 v 10.253906 q 0,0.859375 0.3711,1.347656 0.37109,0.46875 1.05469,0.46875 0.37109,0 0.60546,-0.07813 0.25391,-0.09766 0.42969,-0.214843 0.17578,-0.117188 0.3125,-0.195313 0.15625,-0.09766 0.33203,-0.09766 0.21485,0 0.35157,0.117187 0.13671,0.09766 0.29296,0.332032 l 1.50391,2.402343 q -1.01562,0.839844 -2.32422,1.269532 -1.28906,0.429687 -2.67578,0.429687 z"
       style="font-style:normal;font-variant:normal;font-weight:bold;font-stretch:normal;font-family:Carlito;-inkscape-font-specification:'Carlito Bold';fill:#ffffff"
       id="path45" />
    <path
       d="m 307.58731,13.272171 q 1.83594,0 3.37891,0.605469 1.54297,0.585937 2.65625,1.71875 1.11328,1.113281 1.73828,2.753906 0.625,1.640625 0.625,3.75 0,0.566406 -0.0586,0.9375 -0.0586,0.351563 -0.19531,0.566406 -0.11719,0.214844 -0.35157,0.3125 -0.21484,0.07813 -0.54687,0.07813 h -11.60156 q 0.11718,1.40625 0.50781,2.441407 0.39062,1.035156 1.03515,1.699218 0.64454,0.664063 1.52344,0.996094 0.87891,0.3125 1.95313,0.3125 1.07422,0 1.85547,-0.253906 0.80078,-0.273438 1.38671,-0.566406 0.60547,-0.3125 1.07422,-0.566407 0.46875,-0.273437 0.91797,-0.273437 0.54688,0 0.89844,0.449219 l 1.42578,1.835937 q -0.80078,0.9375 -1.77734,1.5625 -0.97657,0.605469 -2.03125,0.976563 -1.03516,0.351562 -2.10938,0.507812 -1.07422,0.15625 -2.07031,0.15625 -2.01172,0 -3.75,-0.664062 -1.73828,-0.664063 -3.02734,-1.972657 -1.28907,-1.328125 -2.03125,-3.261718 -0.72266,-1.953125 -0.72266,-4.511719 0,-1.972656 0.64453,-3.710938 0.64453,-1.757812 1.83594,-3.046875 1.21094,-1.308593 2.92969,-2.070312 1.71875,-0.761719 3.88671,-0.761719 z m 0.0977,3.535156 q -1.89453,0 -2.96875,1.113282 -1.07422,1.09375 -1.38672,3.105468 h 8.20313 q 0,-0.839843 -0.23438,-1.601562 -0.21484,-0.761719 -0.70312,-1.347656 -0.46875,-0.585938 -1.19141,-0.917969 -0.72266,-0.351563 -1.71875,-0.351563 z"
       style="font-style:normal;font-variant:normal;font-weight:bold;font-stretch:normal;font-family:Carlito;-inkscape-font-specification:'Carlito Bold';fill:#ffffff"
       id="path47" />
  </g>
</svg>
